<?xml version="1.0" encoding="iso-8859-1"?>
<!-- Generator: Adobe Illustrator 16.0.0, SVG Export Plug-In . SVG Version: 6.00 Build 0)  -->
<!DOCTYPE svg PUBLIC "-//W3C//DTD SVG 1.1//EN" "http://www.w3.org/Graphics/SVG/1.1/DTD/svg11.dtd">
<svg version="1.1" id="Capa_1" xmlns="http://www.w3.org/2000/svg" xmlns:xlink="http://www.w3.org/1999/xlink" x="0px" y="0px"
	 width="114.008px" height="114.008px" viewBox="0 0 114.008 114.008" style="enable-background:new 0 0 114.008 114.008;"
	 xml:space="preserve">
<g>
	<g>
		<path d="M16.307,69.812l8.243,1.058c-5.18-3.453-9.276-8.401-11.572-14.287c4.423,5.239,10.549,9.226,17.599,11.225
			c0.708,1.023,1.504,1.964,2.296,2.901c0.118-0.276,0.252-0.554,0.438-0.801c1.815-2.402,4.457-3.672,7.642-3.672
			c3.904,0.011,7.994,0.154,12.144,1.03c7.055-2.368,13.081-6.693,17.229-12.306c-1.68,5.174-4.746,9.706-8.716,13.25
			c0.855-0.164,1.711-0.387,2.577-0.732c2.398-0.961,4.701-1.57,6.919-1.909c3.86-5.722,6.115-12.609,6.115-20.015
			c0-2.625-0.301-5.183-0.842-7.657c-0.599-2.743-1.533-5.351-2.721-7.825c-0.763-1.581-1.595-3.119-2.566-4.548
			c-0.965-1.434-2.067-2.762-3.217-4.035c-6.57-7.224-16.009-11.798-26.518-11.798c-7.597,0-14.642,2.397-20.451,6.437h-0.484
			c0,0.126,0.01,0.241,0.017,0.364c-3.21,2.313-6.027,5.144-8.311,8.376c-0.376,0.511-0.726,1.047-1.066,1.589
			c-0.912,1.424-1.721,2.916-2.411,4.47c-1.384,3.076-2.334,6.384-2.799,9.851c-0.214,1.569-0.361,3.16-0.361,4.779
			c0,9.249,3.549,17.664,9.313,24.029C15.234,69.683,15.7,69.765,16.307,69.812z M49.511,64.44c-2.71,0.69-5.569,1.081-8.516,1.081
			c-2.645,0-5.21-0.302-7.674-0.862c-2.771-4.288-4.667-9.302-5.403-14.738c4.029,1.542,8.441,2.408,13.078,2.408
			c4.919,0,9.598-0.974,13.821-2.709C54.129,55.075,52.261,60.121,49.511,64.44z M55.109,45.548
			c-4.223,2.019-9.019,3.176-14.115,3.176c-4.808,0-9.353-1.035-13.401-2.847c-0.014-0.353-0.034-0.689-0.034-1.044
			c0-4.11,0.666-8.049,1.889-11.707c3.287,2.257,7.257,3.584,11.546,3.584c4.535,0,8.714-1.487,12.118-3.978
			c1.304,3.771,2.033,7.833,2.033,12.097C55.146,45.083,55.12,45.313,55.109,45.548z M71.737,43.68
			c-2.262,8.194-8.377,14.99-16.498,18.728c2.159-4.518,3.515-9.553,3.852-14.894c4.684-2.715,8.619-6.43,11.411-10.839
			C71.184,38.914,71.587,41.258,71.737,43.68z M68.798,32.4c-2.159,4.324-5.51,8.052-9.659,10.86
			c-0.181-4.76-1.154-9.298-2.796-13.468c1.97-2.217,3.482-4.846,4.362-7.754C64.103,24.847,66.864,28.384,68.798,32.4z
			 M57.149,19.55c-0.473,2.247-1.415,4.313-2.702,6.129c-2.033-3.828-4.649-7.243-7.728-10.085
			C50.481,16.276,53.999,17.633,57.149,19.55z M41.353,16.424c4.247,3.146,7.748,7.419,10.162,12.426
			c-2.856,2.373-6.514,3.798-10.517,3.798c-3.756,0-7.219-1.268-9.991-3.395C33.418,24.074,36.986,19.651,41.353,16.424z
			 M35.973,15.594c-3.224,2.98-5.946,6.577-8.021,10.631c-1.415-1.833-2.467-3.963-3.013-6.29
			C28.242,17.812,31.971,16.323,35.973,15.594z M21.454,22.542c0.963,2.95,2.591,5.604,4.685,7.791
			c-1.559,4.151-2.469,8.651-2.592,13.372c-4.23-2.698-7.685-6.333-9.974-10.586C15.405,29.036,18.104,25.439,21.454,22.542z
			 M10.89,45.558c0-2.803,0.405-5.504,1.121-8.099c2.905,4.29,6.902,7.878,11.63,10.463c0.397,5.355,1.805,10.388,4.016,14.889
			C19.786,59.475,13.65,53.299,10.9,45.732C10.9,45.678,10.89,45.625,10.89,45.558z"/>
		<path d="M99.218,87.327c-4.932-6.687-11.386-11.676-18.192-16.111c-5.52-3.594-11.807-2.826-17.669-0.482
			c-3.59,1.438-7.137,1.608-10.584,0.564c-4.598-1.39-9.223-1.54-13.918-1.557c-2.012-0.007-3.684,0.697-4.881,2.275
			c-0.669,0.887,4.812,4.555,9.51,4.555c-0.873,1.742-16.067-1.947-18.093-1.797l-11.5-1.471c-4.083-0.329-4.079-1.876-8.095,0.396
			c-0.137,0.082-0.333,0.082-0.501,0.068c-2.233-0.127-3.498,0.582-4.738,2.063c-0.719,0.853-0.659,1.903-0.277,2.899
			c0.404,1.043,1.427,0.772,2.271,1.108c5.142,2.032,6.798,3.028,13.772,4.75c4.959,1.225,9.788,2.724,14.743,3.84
			c2.047,0.465,4.127,0.814,5.975,1.851c3.924,2.208,8.092,2.879,12.573,2.673c5.085-0.232,10.186-0.027,15.282-0.055
			c8.945-0.041,15.742,3.539,20.338,11.417l28.776-0.062C107.729,96.909,104.96,95.126,99.218,87.327z"/>
	</g>
</g>
<g>
</g>
<g>
</g>
<g>
</g>
<g>
</g>
<g>
</g>
<g>
</g>
<g>
</g>
<g>
</g>
<g>
</g>
<g>
</g>
<g>
</g>
<g>
</g>
<g>
</g>
<g>
</g>
<g>
</g>
</svg>
